<mxfile host="app.diagrams.net" modified="2020-10-12T11:37:39.938Z" agent="5.0 (Windows NT 10.0; Win64; x64) AppleWebKit/537.36 (KHTML, like Gecko) Chrome/86.0.4240.75 Safari/537.36" etag="W7Bgrz8v53hlnLEZQeCf" version="13.7.9" type="github">
  <diagram id="C5RBs43oDa-KdzZeNtuy" name="Page-1">
    <mxGraphModel dx="2249" dy="794" grid="1" gridSize="10" guides="1" tooltips="1" connect="1" arrows="1" fold="1" page="1" pageScale="1" pageWidth="827" pageHeight="1169" math="0" shadow="0">
      <root>
        <mxCell id="WIyWlLk6GJQsqaUBKTNV-0" />
        <mxCell id="WIyWlLk6GJQsqaUBKTNV-1" parent="WIyWlLk6GJQsqaUBKTNV-0" />
        <mxCell id="zXv3rpd8780rLvFLrUcL-4" style="edgeStyle=orthogonalEdgeStyle;rounded=0;orthogonalLoop=1;jettySize=auto;html=1;exitX=0.5;exitY=1;exitDx=0;exitDy=0;endArrow=block;endFill=0;" edge="1" parent="WIyWlLk6GJQsqaUBKTNV-1" source="zXv3rpd8780rLvFLrUcL-1" target="zXv3rpd8780rLvFLrUcL-2">
          <mxGeometry relative="1" as="geometry" />
        </mxCell>
        <mxCell id="zXv3rpd8780rLvFLrUcL-1" value="开始" style="rounded=1;whiteSpace=wrap;html=1;fontSize=12;glass=0;strokeWidth=1;shadow=0;" vertex="1" parent="WIyWlLk6GJQsqaUBKTNV-1">
          <mxGeometry x="350" y="520" width="120" height="40" as="geometry" />
        </mxCell>
        <mxCell id="zXv3rpd8780rLvFLrUcL-6" style="edgeStyle=orthogonalEdgeStyle;rounded=0;orthogonalLoop=1;jettySize=auto;html=1;exitX=0.5;exitY=1;exitDx=0;exitDy=0;endArrow=block;endFill=0;" edge="1" parent="WIyWlLk6GJQsqaUBKTNV-1" source="zXv3rpd8780rLvFLrUcL-2" target="zXv3rpd8780rLvFLrUcL-5">
          <mxGeometry relative="1" as="geometry" />
        </mxCell>
        <mxCell id="zXv3rpd8780rLvFLrUcL-2" value="用户关键词回复“红包”" style="rounded=1;whiteSpace=wrap;html=1;fontSize=12;glass=0;strokeWidth=1;shadow=0;" vertex="1" parent="WIyWlLk6GJQsqaUBKTNV-1">
          <mxGeometry x="350" y="620" width="120" height="40" as="geometry" />
        </mxCell>
        <mxCell id="zXv3rpd8780rLvFLrUcL-8" value="是" style="edgeStyle=orthogonalEdgeStyle;rounded=0;orthogonalLoop=1;jettySize=auto;html=1;exitX=0;exitY=0.5;exitDx=0;exitDy=0;entryX=1;entryY=0.5;entryDx=0;entryDy=0;endArrow=block;endFill=0;" edge="1" parent="WIyWlLk6GJQsqaUBKTNV-1" source="zXv3rpd8780rLvFLrUcL-5" target="zXv3rpd8780rLvFLrUcL-7">
          <mxGeometry relative="1" as="geometry" />
        </mxCell>
        <mxCell id="zXv3rpd8780rLvFLrUcL-12" style="edgeStyle=orthogonalEdgeStyle;rounded=0;orthogonalLoop=1;jettySize=auto;html=1;exitX=0.5;exitY=1;exitDx=0;exitDy=0;entryX=0.5;entryY=0;entryDx=0;entryDy=0;endArrow=block;endFill=0;" edge="1" parent="WIyWlLk6GJQsqaUBKTNV-1" source="zXv3rpd8780rLvFLrUcL-5" target="zXv3rpd8780rLvFLrUcL-11">
          <mxGeometry relative="1" as="geometry" />
        </mxCell>
        <mxCell id="zXv3rpd8780rLvFLrUcL-5" value="参与人数≤2000？" style="rhombus;whiteSpace=wrap;html=1;shadow=0;fontFamily=Helvetica;fontSize=12;align=center;strokeWidth=1;spacing=6;spacingTop=-4;fillColor=#dae8fc;strokeColor=#6c8ebf;" vertex="1" parent="WIyWlLk6GJQsqaUBKTNV-1">
          <mxGeometry x="337.5" y="720" width="145" height="80" as="geometry" />
        </mxCell>
        <mxCell id="zXv3rpd8780rLvFLrUcL-10" style="edgeStyle=orthogonalEdgeStyle;rounded=0;orthogonalLoop=1;jettySize=auto;html=1;exitX=0;exitY=0.5;exitDx=0;exitDy=0;entryX=1;entryY=0.5;entryDx=0;entryDy=0;endArrow=block;endFill=0;" edge="1" parent="WIyWlLk6GJQsqaUBKTNV-1" source="zXv3rpd8780rLvFLrUcL-7" target="zXv3rpd8780rLvFLrUcL-9">
          <mxGeometry relative="1" as="geometry" />
        </mxCell>
        <mxCell id="zXv3rpd8780rLvFLrUcL-7" value="弹出文字，很遗憾，参与人数已满" style="rounded=1;whiteSpace=wrap;html=1;fontSize=12;glass=0;strokeWidth=1;shadow=0;fillColor=#fff2cc;strokeColor=#d6b656;" vertex="1" parent="WIyWlLk6GJQsqaUBKTNV-1">
          <mxGeometry x="160" y="740" width="120" height="40" as="geometry" />
        </mxCell>
        <mxCell id="zXv3rpd8780rLvFLrUcL-9" value="结束" style="rounded=1;whiteSpace=wrap;html=1;fontSize=12;glass=0;strokeWidth=1;shadow=0;fillColor=#f5f5f5;strokeColor=#666666;fontColor=#333333;" vertex="1" parent="WIyWlLk6GJQsqaUBKTNV-1">
          <mxGeometry x="-20" y="740" width="120" height="40" as="geometry" />
        </mxCell>
        <mxCell id="zXv3rpd8780rLvFLrUcL-14" style="edgeStyle=orthogonalEdgeStyle;rounded=0;orthogonalLoop=1;jettySize=auto;html=1;exitX=0;exitY=0.5;exitDx=0;exitDy=0;endArrow=block;endFill=0;" edge="1" parent="WIyWlLk6GJQsqaUBKTNV-1" source="zXv3rpd8780rLvFLrUcL-11" target="zXv3rpd8780rLvFLrUcL-13">
          <mxGeometry relative="1" as="geometry" />
        </mxCell>
        <mxCell id="zXv3rpd8780rLvFLrUcL-20" style="edgeStyle=orthogonalEdgeStyle;rounded=0;orthogonalLoop=1;jettySize=auto;html=1;exitX=0.5;exitY=1;exitDx=0;exitDy=0;endArrow=block;endFill=0;" edge="1" parent="WIyWlLk6GJQsqaUBKTNV-1" source="zXv3rpd8780rLvFLrUcL-11" target="zXv3rpd8780rLvFLrUcL-19">
          <mxGeometry relative="1" as="geometry" />
        </mxCell>
        <mxCell id="zXv3rpd8780rLvFLrUcL-23" style="edgeStyle=orthogonalEdgeStyle;rounded=0;orthogonalLoop=1;jettySize=auto;html=1;exitX=1;exitY=0.5;exitDx=0;exitDy=0;endArrow=block;endFill=0;" edge="1" parent="WIyWlLk6GJQsqaUBKTNV-1" source="zXv3rpd8780rLvFLrUcL-11" target="zXv3rpd8780rLvFLrUcL-22">
          <mxGeometry relative="1" as="geometry" />
        </mxCell>
        <mxCell id="zXv3rpd8780rLvFLrUcL-11" value="弹出H5页面" style="rounded=1;whiteSpace=wrap;html=1;fontSize=12;glass=0;strokeWidth=1;shadow=0;fillColor=#f8cecc;strokeColor=#b85450;" vertex="1" parent="WIyWlLk6GJQsqaUBKTNV-1">
          <mxGeometry x="350" y="860" width="120" height="40" as="geometry" />
        </mxCell>
        <mxCell id="zXv3rpd8780rLvFLrUcL-16" value="" style="edgeStyle=orthogonalEdgeStyle;rounded=0;orthogonalLoop=1;jettySize=auto;html=1;endArrow=block;endFill=0;" edge="1" parent="WIyWlLk6GJQsqaUBKTNV-1" source="zXv3rpd8780rLvFLrUcL-13" target="zXv3rpd8780rLvFLrUcL-15">
          <mxGeometry relative="1" as="geometry" />
        </mxCell>
        <mxCell id="zXv3rpd8780rLvFLrUcL-13" value="下载包体" style="rounded=1;whiteSpace=wrap;html=1;fontSize=12;glass=0;strokeWidth=1;shadow=0;" vertex="1" parent="WIyWlLk6GJQsqaUBKTNV-1">
          <mxGeometry x="160" y="960" width="120" height="40" as="geometry" />
        </mxCell>
        <mxCell id="zXv3rpd8780rLvFLrUcL-18" value="" style="edgeStyle=orthogonalEdgeStyle;rounded=0;orthogonalLoop=1;jettySize=auto;html=1;endArrow=block;endFill=0;" edge="1" parent="WIyWlLk6GJQsqaUBKTNV-1" source="zXv3rpd8780rLvFLrUcL-15" target="zXv3rpd8780rLvFLrUcL-17">
          <mxGeometry relative="1" as="geometry" />
        </mxCell>
        <mxCell id="zXv3rpd8780rLvFLrUcL-15" value="弹出下载落地页" style="rounded=1;whiteSpace=wrap;html=1;fontSize=12;glass=0;strokeWidth=1;shadow=0;" vertex="1" parent="WIyWlLk6GJQsqaUBKTNV-1">
          <mxGeometry x="-20" y="960" width="120" height="40" as="geometry" />
        </mxCell>
        <mxCell id="zXv3rpd8780rLvFLrUcL-21" style="edgeStyle=orthogonalEdgeStyle;rounded=0;orthogonalLoop=1;jettySize=auto;html=1;exitX=1;exitY=0.5;exitDx=0;exitDy=0;entryX=0;entryY=0.5;entryDx=0;entryDy=0;endArrow=block;endFill=0;" edge="1" parent="WIyWlLk6GJQsqaUBKTNV-1" source="zXv3rpd8780rLvFLrUcL-17" target="zXv3rpd8780rLvFLrUcL-19">
          <mxGeometry relative="1" as="geometry" />
        </mxCell>
        <mxCell id="zXv3rpd8780rLvFLrUcL-17" value="下载成功，进入游戏，获取账号" style="rounded=1;whiteSpace=wrap;html=1;fontSize=12;glass=0;strokeWidth=1;shadow=0;" vertex="1" parent="WIyWlLk6GJQsqaUBKTNV-1">
          <mxGeometry x="-20" y="1060" width="120" height="40" as="geometry" />
        </mxCell>
        <mxCell id="zXv3rpd8780rLvFLrUcL-25" style="edgeStyle=orthogonalEdgeStyle;rounded=0;orthogonalLoop=1;jettySize=auto;html=1;exitX=0.5;exitY=1;exitDx=0;exitDy=0;entryX=0.5;entryY=0;entryDx=0;entryDy=0;endArrow=block;endFill=0;" edge="1" parent="WIyWlLk6GJQsqaUBKTNV-1" source="zXv3rpd8780rLvFLrUcL-19" target="zXv3rpd8780rLvFLrUcL-24">
          <mxGeometry relative="1" as="geometry" />
        </mxCell>
        <mxCell id="zXv3rpd8780rLvFLrUcL-19" value="绑定账号" style="rounded=1;whiteSpace=wrap;html=1;fontSize=12;glass=0;strokeWidth=1;shadow=0;" vertex="1" parent="WIyWlLk6GJQsqaUBKTNV-1">
          <mxGeometry x="350" y="1060" width="120" height="40" as="geometry" />
        </mxCell>
        <mxCell id="zXv3rpd8780rLvFLrUcL-30" style="edgeStyle=orthogonalEdgeStyle;rounded=0;orthogonalLoop=1;jettySize=auto;html=1;exitX=0.5;exitY=1;exitDx=0;exitDy=0;entryX=0.5;entryY=0;entryDx=0;entryDy=0;endArrow=block;endFill=0;" edge="1" parent="WIyWlLk6GJQsqaUBKTNV-1" source="zXv3rpd8780rLvFLrUcL-22" target="zXv3rpd8780rLvFLrUcL-26">
          <mxGeometry relative="1" as="geometry" />
        </mxCell>
        <mxCell id="zXv3rpd8780rLvFLrUcL-22" value="领取红包" style="rounded=1;whiteSpace=wrap;html=1;fontSize=12;glass=0;strokeWidth=1;shadow=0;" vertex="1" parent="WIyWlLk6GJQsqaUBKTNV-1">
          <mxGeometry x="690" y="960" width="120" height="40" as="geometry" />
        </mxCell>
        <mxCell id="zXv3rpd8780rLvFLrUcL-32" value="否" style="edgeStyle=orthogonalEdgeStyle;rounded=0;orthogonalLoop=1;jettySize=auto;html=1;exitX=0;exitY=0.5;exitDx=0;exitDy=0;entryX=0.5;entryY=0;entryDx=0;entryDy=0;endArrow=block;endFill=0;" edge="1" parent="WIyWlLk6GJQsqaUBKTNV-1" source="zXv3rpd8780rLvFLrUcL-24" target="zXv3rpd8780rLvFLrUcL-31">
          <mxGeometry relative="1" as="geometry" />
        </mxCell>
        <mxCell id="zXv3rpd8780rLvFLrUcL-36" value="是" style="edgeStyle=orthogonalEdgeStyle;rounded=0;orthogonalLoop=1;jettySize=auto;html=1;exitX=0.5;exitY=1;exitDx=0;exitDy=0;endArrow=block;endFill=0;" edge="1" parent="WIyWlLk6GJQsqaUBKTNV-1" source="zXv3rpd8780rLvFLrUcL-24" target="zXv3rpd8780rLvFLrUcL-35">
          <mxGeometry relative="1" as="geometry" />
        </mxCell>
        <mxCell id="zXv3rpd8780rLvFLrUcL-24" value="账号是否符合限制条件？" style="rhombus;whiteSpace=wrap;html=1;shadow=0;fontFamily=Helvetica;fontSize=12;align=center;strokeWidth=1;spacing=6;spacingTop=-4;fillColor=#dae8fc;strokeColor=#6c8ebf;" vertex="1" parent="WIyWlLk6GJQsqaUBKTNV-1">
          <mxGeometry x="330.5" y="1210" width="159" height="80" as="geometry" />
        </mxCell>
        <mxCell id="zXv3rpd8780rLvFLrUcL-28" value="否" style="edgeStyle=orthogonalEdgeStyle;rounded=0;orthogonalLoop=1;jettySize=auto;html=1;exitX=0;exitY=0.5;exitDx=0;exitDy=0;entryX=0.5;entryY=0;entryDx=0;entryDy=0;endArrow=block;endFill=0;" edge="1" parent="WIyWlLk6GJQsqaUBKTNV-1" source="zXv3rpd8780rLvFLrUcL-26" target="zXv3rpd8780rLvFLrUcL-27">
          <mxGeometry relative="1" as="geometry">
            <Array as="points">
              <mxPoint x="600" y="1080" />
            </Array>
          </mxGeometry>
        </mxCell>
        <mxCell id="zXv3rpd8780rLvFLrUcL-39" style="edgeStyle=orthogonalEdgeStyle;rounded=0;orthogonalLoop=1;jettySize=auto;html=1;exitX=0.5;exitY=1;exitDx=0;exitDy=0;endArrow=block;endFill=0;" edge="1" parent="WIyWlLk6GJQsqaUBKTNV-1" source="zXv3rpd8780rLvFLrUcL-26" target="zXv3rpd8780rLvFLrUcL-37">
          <mxGeometry relative="1" as="geometry" />
        </mxCell>
        <mxCell id="zXv3rpd8780rLvFLrUcL-26" value="是否绑定账号？" style="rhombus;whiteSpace=wrap;html=1;shadow=0;fontFamily=Helvetica;fontSize=12;align=center;strokeWidth=1;spacing=6;spacingTop=-4;fillColor=#dae8fc;strokeColor=#6c8ebf;" vertex="1" parent="WIyWlLk6GJQsqaUBKTNV-1">
          <mxGeometry x="677.5" y="1040" width="145" height="80" as="geometry" />
        </mxCell>
        <mxCell id="zXv3rpd8780rLvFLrUcL-29" style="edgeStyle=orthogonalEdgeStyle;rounded=0;orthogonalLoop=1;jettySize=auto;html=1;exitX=0;exitY=0.5;exitDx=0;exitDy=0;endArrow=block;endFill=0;" edge="1" parent="WIyWlLk6GJQsqaUBKTNV-1" source="zXv3rpd8780rLvFLrUcL-27" target="zXv3rpd8780rLvFLrUcL-24">
          <mxGeometry relative="1" as="geometry" />
        </mxCell>
        <mxCell id="zXv3rpd8780rLvFLrUcL-27" value="提示：请先绑定账号" style="rounded=1;whiteSpace=wrap;html=1;fontSize=12;glass=0;strokeWidth=1;shadow=0;fillColor=#f8cecc;strokeColor=#b85450;" vertex="1" parent="WIyWlLk6GJQsqaUBKTNV-1">
          <mxGeometry x="540" y="1230" width="120" height="40" as="geometry" />
        </mxCell>
        <mxCell id="zXv3rpd8780rLvFLrUcL-34" style="edgeStyle=orthogonalEdgeStyle;rounded=0;orthogonalLoop=1;jettySize=auto;html=1;exitX=0.5;exitY=1;exitDx=0;exitDy=0;endArrow=block;endFill=0;" edge="1" parent="WIyWlLk6GJQsqaUBKTNV-1" source="zXv3rpd8780rLvFLrUcL-31" target="zXv3rpd8780rLvFLrUcL-33">
          <mxGeometry relative="1" as="geometry" />
        </mxCell>
        <mxCell id="zXv3rpd8780rLvFLrUcL-31" value="绑定失败：【微信失败提示语】" style="rounded=1;whiteSpace=wrap;html=1;fontSize=12;glass=0;strokeWidth=1;shadow=0;fillColor=#f8cecc;strokeColor=#b85450;" vertex="1" parent="WIyWlLk6GJQsqaUBKTNV-1">
          <mxGeometry x="160" y="1340" width="120" height="40" as="geometry" />
        </mxCell>
        <mxCell id="zXv3rpd8780rLvFLrUcL-33" value="结束" style="rounded=1;whiteSpace=wrap;html=1;fontSize=12;glass=0;strokeWidth=1;shadow=0;fillColor=#f5f5f5;strokeColor=#666666;fontColor=#333333;" vertex="1" parent="WIyWlLk6GJQsqaUBKTNV-1">
          <mxGeometry x="160" y="1460" width="120" height="40" as="geometry" />
        </mxCell>
        <mxCell id="zXv3rpd8780rLvFLrUcL-38" style="edgeStyle=orthogonalEdgeStyle;rounded=0;orthogonalLoop=1;jettySize=auto;html=1;exitX=1;exitY=0.5;exitDx=0;exitDy=0;entryX=0;entryY=0.5;entryDx=0;entryDy=0;endArrow=block;endFill=0;" edge="1" parent="WIyWlLk6GJQsqaUBKTNV-1" source="zXv3rpd8780rLvFLrUcL-35" target="zXv3rpd8780rLvFLrUcL-37">
          <mxGeometry relative="1" as="geometry" />
        </mxCell>
        <mxCell id="zXv3rpd8780rLvFLrUcL-35" value="绑定成功：【微信成功提示语】" style="rounded=1;whiteSpace=wrap;html=1;fontSize=12;glass=0;strokeWidth=1;shadow=0;fillColor=#f8cecc;strokeColor=#b85450;" vertex="1" parent="WIyWlLk6GJQsqaUBKTNV-1">
          <mxGeometry x="350" y="1340" width="120" height="40" as="geometry" />
        </mxCell>
        <mxCell id="zXv3rpd8780rLvFLrUcL-42" value="是" style="edgeStyle=orthogonalEdgeStyle;rounded=0;orthogonalLoop=1;jettySize=auto;html=1;exitX=0.5;exitY=1;exitDx=0;exitDy=0;endArrow=block;endFill=0;" edge="1" parent="WIyWlLk6GJQsqaUBKTNV-1" source="zXv3rpd8780rLvFLrUcL-37" target="zXv3rpd8780rLvFLrUcL-40">
          <mxGeometry relative="1" as="geometry" />
        </mxCell>
        <mxCell id="zXv3rpd8780rLvFLrUcL-43" value="否" style="edgeStyle=orthogonalEdgeStyle;rounded=0;orthogonalLoop=1;jettySize=auto;html=1;exitX=1;exitY=0.5;exitDx=0;exitDy=0;entryX=0;entryY=0.5;entryDx=0;entryDy=0;endArrow=block;endFill=0;" edge="1" parent="WIyWlLk6GJQsqaUBKTNV-1" source="zXv3rpd8780rLvFLrUcL-37" target="zXv3rpd8780rLvFLrUcL-41">
          <mxGeometry relative="1" as="geometry" />
        </mxCell>
        <mxCell id="zXv3rpd8780rLvFLrUcL-37" value="是否符合条件？" style="rhombus;whiteSpace=wrap;html=1;shadow=0;fontFamily=Helvetica;fontSize=12;align=center;strokeWidth=1;spacing=6;spacingTop=-4;fillColor=#dae8fc;strokeColor=#6c8ebf;" vertex="1" parent="WIyWlLk6GJQsqaUBKTNV-1">
          <mxGeometry x="677.5" y="1320" width="145" height="80" as="geometry" />
        </mxCell>
        <mxCell id="zXv3rpd8780rLvFLrUcL-45" style="edgeStyle=orthogonalEdgeStyle;rounded=0;orthogonalLoop=1;jettySize=auto;html=1;exitX=0.5;exitY=1;exitDx=0;exitDy=0;endArrow=block;endFill=0;" edge="1" parent="WIyWlLk6GJQsqaUBKTNV-1" source="zXv3rpd8780rLvFLrUcL-40" target="zXv3rpd8780rLvFLrUcL-44">
          <mxGeometry relative="1" as="geometry" />
        </mxCell>
        <mxCell id="zXv3rpd8780rLvFLrUcL-40" value="领取成功：发放红包到" style="rounded=1;whiteSpace=wrap;html=1;fontSize=12;glass=0;strokeWidth=1;shadow=0;fillColor=#f8cecc;strokeColor=#b85450;" vertex="1" parent="WIyWlLk6GJQsqaUBKTNV-1">
          <mxGeometry x="690" y="1460" width="120" height="40" as="geometry" />
        </mxCell>
        <mxCell id="zXv3rpd8780rLvFLrUcL-46" style="edgeStyle=orthogonalEdgeStyle;rounded=0;orthogonalLoop=1;jettySize=auto;html=1;exitX=0.5;exitY=1;exitDx=0;exitDy=0;entryX=1;entryY=0.5;entryDx=0;entryDy=0;endArrow=block;endFill=0;" edge="1" parent="WIyWlLk6GJQsqaUBKTNV-1" source="zXv3rpd8780rLvFLrUcL-41" target="zXv3rpd8780rLvFLrUcL-44">
          <mxGeometry relative="1" as="geometry" />
        </mxCell>
        <mxCell id="zXv3rpd8780rLvFLrUcL-41" value="领取失败：微信失败提示语" style="rounded=1;whiteSpace=wrap;html=1;fontSize=12;glass=0;strokeWidth=1;shadow=0;fillColor=#f8cecc;strokeColor=#b85450;" vertex="1" parent="WIyWlLk6GJQsqaUBKTNV-1">
          <mxGeometry x="910" y="1340" width="120" height="40" as="geometry" />
        </mxCell>
        <mxCell id="zXv3rpd8780rLvFLrUcL-44" value="结束" style="rounded=1;whiteSpace=wrap;html=1;fontSize=12;glass=0;strokeWidth=1;shadow=0;fillColor=#f5f5f5;strokeColor=#666666;fontColor=#333333;" vertex="1" parent="WIyWlLk6GJQsqaUBKTNV-1">
          <mxGeometry x="690" y="1570" width="120" height="40" as="geometry" />
        </mxCell>
      </root>
    </mxGraphModel>
  </diagram>
</mxfile>
